<svg width="2852" height="1079" viewBox="0 0 2852 1079" fill="none" xmlns="http://www.w3.org/2000/svg">
<g clip-path="url(#clip0_149_2)">
<path d="M391.962 479.123C342.124 430.12 305.798 373.635 295.244 303.11C292.482 284.652 290.811 265.935 294.536 247.435C300.618 217.23 318.199 194.629 343.369 177.776C373.835 157.377 407.7 149.795 444.031 152.755C478.831 155.591 509.564 168.021 535.179 192.161C537.214 194.078 538.943 196.321 539.974 197.474C551.657 188.824 562.078 179.621 573.829 172.662C626.957 141.197 700.177 146.192 747.729 183.855C749.878 185.557 751.885 187.438 753.812 189.689C737.347 203.143 721.032 216.15 704.706 229.144C687.86 242.551 671.072 256.032 654.103 269.282C649.924 272.545 645.143 275.038 640.722 277.498C642.971 267.901 646.043 259.018 654.168 253.365C667.552 244.053 673.041 231.537 670.991 215.487C670.22 209.445 668.001 207.253 661.828 207.464C656.68 207.639 651.514 207.981 646.413 208.672C639.386 209.625 633.013 208.494 626.744 204.988C621.854 202.253 616.463 200.371 611.203 198.347C587.712 189.307 558.727 211.078 560.812 234.524C561.369 240.78 562.316 247.115 561.857 253.323C561.049 264.252 559.297 275.111 557.577 286.005C556.437 286.248 555.5 286.285 554.904 286.755C544.892 294.659 534.93 302.625 524.942 310.56C506.266 325.396 487.541 340.17 468.928 355.084C464.051 358.991 459.511 363.317 454.482 367.314C443.909 360.925 432.828 358.034 420.835 359.018C411.37 359.794 408.165 366.353 413.352 374.31C414.522 376.106 415.952 377.788 417.503 379.27C420.144 381.795 422.943 384.16 425.734 386.523C437.077 396.123 439.136 406.781 432.054 419.771C429.906 423.71 427.545 427.533 425.407 431.477C420.927 439.745 417.478 448.32 417.69 458.003C416.407 458.327 415.323 458.432 414.609 459.001C409.062 463.418 403.503 467.827 398.13 472.451C395.849 474.413 394.005 476.883 391.962 479.123Z" fill="#1DD677"/>
<path d="M640.638 277.886C645.143 275.038 649.924 272.545 654.103 269.282C671.072 256.032 687.86 242.551 704.706 229.144C721.032 216.15 737.347 203.143 753.996 189.997C771.834 205.79 783.983 224.877 788.423 248.4C791.362 263.967 790.261 279.617 788.452 295.166C780.626 362.407 749.027 417.964 703.25 466.261C658.876 513.077 606.49 548.864 548.721 577.122C543.467 579.691 539.235 579.689 533.943 577.116C492.134 556.786 453.203 532.037 417.597 502.132C408.963 494.88 400.678 487.211 392.097 479.429C394.005 476.883 395.849 474.413 398.13 472.451C403.503 467.827 409.062 463.418 414.609 459.001C415.323 458.432 416.407 458.327 417.843 458.339C419.673 461.47 420.406 464.79 422.39 466.975C429.291 474.577 438.379 478.624 448.179 480.997C470.147 486.317 492.551 484.795 514.824 484.68C522.348 484.642 526.124 476.837 522.322 470.034C518.193 462.643 515.93 454.65 517.206 446.524C519.233 433.607 521.757 420.651 525.546 408.158C529.375 395.534 532.452 383.443 525.512 371.061C525.273 370.635 525.003 370.076 525.087 369.646C525.656 366.746 525.364 362.637 527.157 361.244C530.398 358.726 534.337 361.24 535.983 364.246C538.316 368.507 539.979 373.333 540.924 378.117C543.404 390.669 539.643 402.422 535.651 414.167C531.738 425.684 528.131 437.497 529.361 449.773C529.892 455.074 532.726 460.375 535.513 465.085C536.397 466.579 540.57 466.633 543.121 466.34C543.933 466.247 544.766 462.929 544.91 461.036C545.449 453.912 545.36 446.729 546.145 439.639C547.722 425.402 553.972 413.952 567.214 407.232C571.359 405.128 575.633 403.269 579.907 401.433C583.375 399.943 585.163 397.438 585.019 393.682C584.924 391.2 585.108 388.564 584.341 386.273C580.214 373.954 582.971 360.449 577.695 348.354C577.59 348.112 577.82 347.725 577.792 347.843C585.3 347.173 592.645 346.124 600.002 346.027C603.68 345.979 607.342 347.898 611.078 348.526C618.593 349.787 619.135 350.13 618.944 357.777C618.894 359.787 618.204 362.092 617.038 363.705C613.644 368.402 613.403 372.739 616.016 378.082C618.69 383.552 620.856 389.503 621.938 395.48C627.323 425.224 625.32 454.618 617.217 484.301C618.112 484.424 619.652 484.805 621.194 484.818C628.691 484.882 636.189 484.859 643.687 484.842C648.858 484.831 649.912 483.577 648.548 478.622C648.075 476.903 646.724 475.436 646.18 473.725C645.145 470.468 643.534 467.079 643.681 463.813C644.497 445.646 646.715 427.569 652.289 410.236C658.539 390.798 658.895 371.109 655.146 351.541C652.08 335.543 646.974 319.912 642.34 304.246C639.75 295.493 638.791 286.83 640.638 277.886Z" fill="#1FCA76"/>
<path d="M777.323 624.853C784.24 635.471 791.987 645.647 797.913 656.792C813.125 685.397 820.681 716.245 822.424 748.552C824.237 782.165 819.38 814.624 805.093 845.304C792.666 871.991 774.948 894.235 747.595 906.658C712.417 922.633 679.004 916.722 647.906 895.403C621.297 877.162 602.791 852.034 590.162 822.713C584.647 809.909 581.154 796.235 577.021 782.42C579.639 780.316 582.085 778.886 584.297 777.157C593.301 770.123 602.237 763.003 611.189 755.904C626.372 743.865 641.553 731.823 656.727 719.773C672.16 707.519 687.578 695.245 703.015 682.995C719.878 669.613 736.718 656.2 753.644 642.896C761.444 636.764 769.424 630.86 777.323 624.853Z" fill="#22B673"/>
<path d="M281.801 854.434C272.57 838.974 266.835 822.143 263.62 804.582C251.978 740.994 263.283 682.048 301.187 629.149C318.347 605.2 340.439 586.783 369.229 578.452C409.099 566.915 442.794 578.576 470.468 608.464C488.256 627.675 498.937 650.84 504.849 676.573C498.001 681.85 491.369 686.511 485.026 691.535C463.21 708.812 441.543 726.278 419.727 743.556C398.304 760.523 376.74 777.312 355.291 794.248C334.622 810.567 313.972 826.911 293.435 843.394C289.28 846.729 285.665 850.737 281.801 854.434Z" fill="#1FC675"/>
<path d="M757.094 477.273C759.459 456.104 765.985 437.053 780.943 422.028C803.304 399.569 830.517 394.892 860.252 402.691C889.898 410.467 913.094 428.172 931.601 452.083C954.688 481.911 967.456 515.52 964.847 553.639C962.645 585.802 949.811 612.381 919.333 627.022C895.437 638.501 870.909 636.347 847.253 626.071C805.334 607.862 779.079 575.208 764.031 532.841C757.702 515.021 755.859 496.554 757.094 477.273Z" fill="#21BC74"/>
<path d="M187.741 417.74C204.045 407.383 221.342 401.081 240.325 399.432C277.449 396.206 310.5 419.69 321.003 457.212C328.739 484.848 326.095 512.053 315.911 538.502C301.36 576.29 276.975 605.718 240.168 623.739C219.203 634.004 197.026 637.932 174.22 631.323C142.653 622.176 125.371 599.47 119.169 568.304C111.657 530.547 121.599 496.071 141.799 464.133C153.622 445.441 168.776 429.93 187.741 417.74Z" fill="#1DD577"/>
<path d="M281.854 854.767C285.665 850.737 289.28 846.729 293.434 843.394C313.972 826.911 334.622 810.567 355.291 794.248C376.74 777.312 398.304 760.523 419.727 743.556C441.543 726.278 463.21 708.812 485.026 691.535C491.369 686.511 498.001 681.85 504.867 676.978C506.839 687.506 508.926 698.034 509.916 708.664C510.925 719.499 511.674 730.477 511.105 741.318C509.333 775.083 500.751 807.073 484.664 836.99C469.658 864.897 449.634 887.941 421.439 903.111C383.344 923.607 341.378 918.479 308.982 889.848C297.752 879.923 289.124 868.09 281.854 854.767Z" fill="#21BE74"/>
<path d="M777.132 624.563C769.424 630.86 761.444 636.764 753.644 642.896C736.718 656.2 719.878 669.613 703.015 682.995C687.578 695.246 672.16 707.519 656.727 719.773C641.553 731.823 626.372 743.865 611.189 755.904C602.237 763.003 593.301 770.123 584.297 777.157C582.085 778.886 579.639 780.316 576.952 782.02C564.55 727.583 568.149 675.033 597.992 626.343C612.541 602.607 632.699 585.175 660.092 577.61C690.349 569.254 717.994 576.236 743.617 593.127C756.466 601.597 767.608 611.993 777.132 624.563Z" fill="#21BD74"/>
<path d="M640.722 277.498C638.791 286.83 639.75 295.493 642.34 304.246C646.974 319.912 652.08 335.543 655.146 351.541C658.895 371.109 658.539 390.798 652.289 410.236C646.715 427.569 644.497 445.646 643.681 463.813C643.534 467.079 645.145 470.468 646.18 473.725C646.724 475.436 648.075 476.903 648.548 478.622C649.912 483.577 648.858 484.831 643.687 484.842C636.189 484.859 628.691 484.882 621.194 484.818C619.652 484.805 618.113 484.424 617.217 484.301C625.32 454.618 627.323 425.224 621.938 395.48C620.856 389.503 618.69 383.552 616.016 378.082C613.403 372.739 613.644 368.402 617.038 363.705C618.204 362.092 618.894 359.787 618.944 357.777C619.135 350.13 618.593 349.787 611.078 348.526C607.342 347.898 603.68 345.979 600.002 346.027C592.645 346.124 585.3 347.173 577.793 347.843C577.82 347.725 577.59 348.112 577.695 348.354C582.971 360.449 580.214 373.954 584.341 386.273C585.108 388.564 584.924 391.2 585.02 393.682C585.163 397.438 583.375 399.943 579.907 401.433C575.633 403.269 571.359 405.128 567.214 407.232C553.972 413.952 547.722 425.402 546.145 439.639C545.36 446.729 545.449 453.912 544.91 461.036C544.766 462.929 543.933 466.247 543.121 466.34C540.57 466.633 536.397 466.579 535.513 465.085C532.726 460.375 529.892 455.074 529.361 449.773C528.131 437.497 531.738 425.684 535.651 414.167C539.643 402.422 543.404 390.669 540.924 378.117C539.979 373.333 538.316 368.507 535.983 364.246C534.337 361.24 530.398 358.726 527.157 361.244C525.364 362.637 525.656 366.746 525.087 369.646C525.003 370.076 525.273 370.635 525.512 371.061C532.452 383.443 529.375 395.534 525.546 408.158C521.757 420.651 519.233 433.607 517.206 446.524C515.93 454.65 518.193 462.643 522.322 470.034C526.124 476.837 522.348 484.642 514.824 484.68C492.551 484.795 470.147 486.317 448.179 480.997C438.379 478.624 429.291 474.577 422.39 466.975C420.406 464.79 419.673 461.47 418.213 458.335C417.479 448.32 420.927 439.745 425.407 431.477C427.545 427.533 429.906 423.71 432.054 419.771C439.136 406.781 437.077 396.123 425.734 386.523C422.943 384.16 420.144 381.795 417.503 379.27C415.952 377.788 414.522 376.106 413.352 374.31C408.165 366.353 411.37 359.794 420.835 359.018C432.828 358.034 443.909 360.925 454.686 367.558C459.008 372.505 463.734 376.584 466.397 381.731C473.807 396.05 474.322 411.909 462.924 424.896C459.309 429.015 455.977 433.433 452.931 437.992C445.692 448.826 447.588 455.213 459.365 461.056C463.43 463.073 467.439 464.397 471.495 461.155C475.437 458.003 475.532 453.907 474.582 449.371C472.333 438.623 472.402 427.966 475.445 417.269C481.118 397.324 493.765 381.721 507.605 367.316C519.754 354.672 533.543 343.597 546.692 331.924C552.884 326.428 558.797 324.941 566.842 330.143C580.068 338.696 592.359 334.936 600.941 321.742C606.289 313.52 606.316 304.307 606.862 294.667C606.584 290.197 606.198 286.163 605.811 282.13C605.578 282.155 605.344 282.18 605.111 282.205C605.111 286.488 605.111 290.77 605.064 295.477C602.999 303.154 601.909 310.845 598.738 317.552C594.363 326.804 585.568 330.482 576.44 328.741C566.61 326.865 560.625 320.942 559.388 310.62C558.411 302.473 558.387 294.211 557.94 286C559.297 275.111 561.049 264.252 561.857 253.323C562.316 247.115 561.369 240.78 560.812 234.524C558.727 211.078 587.712 189.307 611.203 198.347C616.463 200.371 621.854 202.253 626.744 204.988C633.013 208.494 639.386 209.625 646.413 208.672C651.514 207.981 656.68 207.639 661.828 207.464C668.001 207.253 670.22 209.445 670.991 215.487C673.041 231.537 667.552 244.053 654.168 253.365C646.043 259.018 642.971 267.901 640.722 277.498Z" fill="#FDFFFE"/>
<path d="M557.577 286.005C558.387 294.211 558.411 302.473 559.388 310.62C560.625 320.942 566.61 326.865 576.44 328.741C585.568 330.482 594.363 326.804 598.738 317.552C601.909 310.845 602.999 303.154 605.338 295.456C606.023 295.042 606.388 295.073 606.753 295.104C606.316 304.307 606.289 313.52 600.941 321.742C592.359 334.936 580.068 338.696 566.842 330.143C558.797 324.941 552.884 326.428 546.692 331.924C533.543 343.597 519.754 354.672 507.605 367.316C493.765 381.721 481.118 397.324 475.445 417.269C472.402 427.966 472.333 438.623 474.582 449.371C475.532 453.907 475.437 458.003 471.495 461.155C467.439 464.397 463.43 463.073 459.365 461.056C447.588 455.213 445.692 448.826 452.931 437.992C455.977 433.433 459.309 429.015 462.924 424.896C474.322 411.909 473.807 396.05 466.397 381.731C463.734 376.584 459.008 372.505 455.02 367.694C459.511 363.317 464.051 358.991 468.928 355.084C487.541 340.17 506.267 325.396 524.942 310.56C534.93 302.625 544.892 294.659 554.904 286.755C555.5 286.285 556.437 286.248 557.577 286.005Z" fill="#1ED277"/>
<path d="M606.862 294.667C606.388 295.073 606.023 295.042 605.385 295.032C605.111 290.77 605.111 286.488 605.111 282.205C605.344 282.18 605.578 282.155 605.811 282.13C606.198 286.163 606.584 290.197 606.862 294.667Z" fill="#67E0A2"/>
<path d="M1284.17 756.54C1263.3 756.54 1243.78 754.642 1225.61 750.847C1207.72 747.322 1192.67 742.578 1180.47 736.613C1168.27 730.649 1158.24 724.956 1150.38 719.533C1142.79 714.111 1136.42 708.689 1131.27 703.267L1141.43 604.447C1152.55 619.358 1167.46 632.371 1186.17 643.487C1204.87 654.331 1225.07 659.753 1246.76 659.753C1268.45 659.753 1284.04 657.449 1293.53 652.84C1303.29 648.231 1308.17 639.827 1308.17 627.627C1308.17 614.613 1302.61 603.498 1291.49 594.28C1280.65 585.062 1261.81 573.947 1234.97 560.933C1225.21 556.053 1216.94 551.716 1210.16 547.92C1203.38 543.853 1194.3 537.347 1182.91 528.4C1171.8 519.182 1162.72 509.693 1155.67 499.933C1148.62 489.902 1142.38 477.16 1136.96 461.707C1131.54 445.982 1128.83 429.173 1128.83 411.28C1128.83 314.493 1183.46 266.1 1292.71 266.1C1310.06 266.1 1326.33 267.998 1341.51 271.793C1356.97 275.318 1369.03 279.249 1377.71 283.587C1386.38 287.924 1394.24 293.076 1401.29 299.04C1408.61 304.733 1413.22 308.8 1415.12 311.24C1417.02 313.409 1418.37 315.171 1419.19 316.527L1398.85 395.013C1388.28 382.542 1375 373.324 1359 367.36C1343.28 361.124 1328.23 358.007 1313.86 358.007C1279.16 358.007 1261.81 368.851 1261.81 390.54C1261.81 396.233 1262.89 401.384 1265.06 405.993C1267.23 410.602 1270.75 414.804 1275.63 418.6C1280.51 422.396 1284.99 425.649 1289.05 428.36C1293.39 431.071 1299.22 434.46 1306.54 438.527C1314.13 442.322 1319.82 445.44 1323.62 447.88C1363.2 464.689 1392.21 484.616 1410.65 507.66C1429.35 530.704 1438.71 558.764 1438.71 591.84C1438.71 645.52 1425.42 686.458 1398.85 714.653C1372.56 742.578 1334.33 756.54 1284.17 756.54ZM1616.4 748H1481.8V271.387H1535.48C1549.85 271.387 1571.54 270.844 1600.54 269.76C1629.55 268.404 1653.41 267.727 1672.12 267.727C1724.71 267.727 1764.57 281.689 1791.68 309.613C1818.79 337.538 1832.34 379.424 1832.34 435.273C1832.34 468.891 1827.87 499.527 1818.92 527.18C1810.25 554.562 1798.46 577.064 1783.54 594.687C1768.63 612.309 1751.69 625.864 1732.71 635.353C1713.73 644.842 1693.67 649.587 1672.52 649.587C1669.81 649.587 1666.97 649.587 1663.98 649.587C1661.27 649.587 1658.7 649.587 1656.26 649.587C1654.09 649.316 1651.38 649.18 1648.12 649.18C1645.14 648.909 1642.7 648.773 1640.8 648.773C1639.18 648.502 1636.74 648.367 1633.48 648.367C1630.5 648.096 1628.47 647.96 1627.38 647.96C1626.3 647.96 1624.27 647.824 1621.28 647.553C1618.3 647.282 1616.68 647.147 1616.4 647.147V748ZM1698.96 417.38C1698.96 397.318 1693.54 381.051 1682.69 368.58C1671.85 356.109 1656.26 349.873 1635.92 349.873H1616.4V561.34H1631.45C1652.87 561.34 1669.41 554.156 1681.06 539.787C1692.99 525.418 1698.96 504.678 1698.96 477.567V417.38ZM2096.88 748L2078.58 671.953H1963.09L1947.63 748H1828.07L1952.11 304.327L1942.35 271.387H2110.3L2246.13 748H2096.88ZM2015.55 411.28L1979.76 588.993H2058.65L2015.55 411.28ZM2496 748L2477.7 671.953H2362.21L2346.76 748H2227.2L2351.23 304.327L2341.47 271.387H2509.42L2645.25 748H2496ZM2414.67 411.28L2378.88 588.993H2457.78L2414.67 411.28Z" fill="white"/>
</g>
<defs>
<clipPath id="clip0_149_2">
<rect width="2852" height="1079" fill="white"/>
</clipPath>
</defs>
</svg>
